<mxfile host="Electron" modified="2024-04-14T14:17:59.537Z" agent="Mozilla/5.0 (Macintosh; Intel Mac OS X 10_15_7) AppleWebKit/537.36 (KHTML, like Gecko) draw.io/24.0.4 Chrome/120.0.6099.109 Electron/28.1.0 Safari/537.36" etag="AecD0nSuyPg8F44r2uzI" version="24.0.4" type="device">
  <diagram name="Page-1" id="ttLbb8EPUdfauJrKSJvY">
    <mxGraphModel dx="1642" dy="1328" grid="0" gridSize="10" guides="1" tooltips="1" connect="1" arrows="1" fold="1" page="0" pageScale="1" pageWidth="850" pageHeight="1100" math="0" shadow="0">
      <root>
        <mxCell id="0" />
        <mxCell id="1" parent="0" />
        <mxCell id="4fhEWYTqs3r3j7yKjbOE-15" value="" style="rounded=0;whiteSpace=wrap;html=1;fillColor=#000000;" vertex="1" parent="1">
          <mxGeometry x="-374" y="-135" width="1133" height="715" as="geometry" />
        </mxCell>
        <mxCell id="4fhEWYTqs3r3j7yKjbOE-1" value="" style="rounded=1;whiteSpace=wrap;html=1;fillColor=#dae8fc;gradientColor=#7ea6e0;strokeColor=#6c8ebf;" vertex="1" parent="1">
          <mxGeometry x="-273" y="42" width="394" height="363" as="geometry" />
        </mxCell>
        <mxCell id="4fhEWYTqs3r3j7yKjbOE-3" value="&lt;b&gt;&lt;font style=&quot;font-size: 24px;&quot;&gt;Software&lt;/font&gt;&lt;/b&gt;" style="rounded=1;whiteSpace=wrap;html=1;fillColor=#fff2cc;gradientColor=#ffd966;strokeColor=#d6b656;" vertex="1" parent="1">
          <mxGeometry x="-243" y="162" width="335" height="50" as="geometry" />
        </mxCell>
        <mxCell id="4fhEWYTqs3r3j7yKjbOE-4" value="&lt;b&gt;&lt;font style=&quot;font-size: 24px;&quot;&gt;OS / Base Image&lt;/font&gt;&lt;/b&gt;" style="rounded=1;whiteSpace=wrap;html=1;fillColor=#ffcd28;gradientColor=#ffa500;strokeColor=#d79b00;" vertex="1" parent="1">
          <mxGeometry x="-243" y="327" width="335" height="50" as="geometry" />
        </mxCell>
        <mxCell id="4fhEWYTqs3r3j7yKjbOE-5" value="&lt;b&gt;&lt;font style=&quot;font-size: 24px;&quot;&gt;Dependencies&lt;/font&gt;&lt;/b&gt;" style="rounded=1;whiteSpace=wrap;html=1;fillColor=#66FFFF;gradientColor=#00CCCC;strokeColor=#82b366;" vertex="1" parent="1">
          <mxGeometry x="-243" y="245" width="335" height="50" as="geometry" />
        </mxCell>
        <mxCell id="4fhEWYTqs3r3j7yKjbOE-6" value="&lt;b&gt;&lt;font style=&quot;font-size: 24px;&quot;&gt;Binaries&lt;/font&gt;&lt;/b&gt;" style="rounded=1;whiteSpace=wrap;html=1;fillColor=#99FF99;gradientColor=#97d077;strokeColor=#82b366;" vertex="1" parent="1">
          <mxGeometry x="-243.5" y="80" width="335" height="50" as="geometry" />
        </mxCell>
        <mxCell id="4fhEWYTqs3r3j7yKjbOE-7" value="&lt;b&gt;&lt;font color=&quot;#ffffff&quot; style=&quot;font-size: 32px;&quot;&gt;Builder Image&lt;/font&gt;&lt;/b&gt;" style="text;html=1;align=center;verticalAlign=middle;resizable=0;points=[];autosize=1;strokeColor=none;fillColor=none;fontSize=16;" vertex="1" parent="1">
          <mxGeometry x="-190.5" y="-7" width="230" height="50" as="geometry" />
        </mxCell>
        <mxCell id="4fhEWYTqs3r3j7yKjbOE-10" value="" style="rounded=1;whiteSpace=wrap;html=1;fillColor=#dae8fc;gradientColor=#7ea6e0;strokeColor=#6c8ebf;" vertex="1" parent="1">
          <mxGeometry x="258" y="42" width="394" height="363" as="geometry" />
        </mxCell>
        <mxCell id="4fhEWYTqs3r3j7yKjbOE-11" value="&lt;b&gt;&lt;font color=&quot;#ffffff&quot; style=&quot;font-size: 32px;&quot;&gt;Final Image&lt;/font&gt;&lt;/b&gt;" style="text;html=1;align=center;verticalAlign=middle;resizable=0;points=[];autosize=1;strokeColor=none;fillColor=none;fontSize=16;" vertex="1" parent="1">
          <mxGeometry x="358.5" y="-7" width="194" height="50" as="geometry" />
        </mxCell>
        <mxCell id="4fhEWYTqs3r3j7yKjbOE-12" value="&lt;b&gt;&lt;font style=&quot;font-size: 24px;&quot;&gt;OS / Base Image&lt;/font&gt;&lt;/b&gt;" style="rounded=1;whiteSpace=wrap;html=1;fillColor=#ffcd28;gradientColor=#ffa500;strokeColor=#d79b00;" vertex="1" parent="1">
          <mxGeometry x="288" y="327" width="335" height="50" as="geometry" />
        </mxCell>
        <mxCell id="4fhEWYTqs3r3j7yKjbOE-13" value="&lt;b&gt;&lt;font style=&quot;font-size: 24px;&quot;&gt;Binaries&lt;/font&gt;&lt;/b&gt;" style="rounded=1;whiteSpace=wrap;html=1;fillColor=#99FF99;gradientColor=#97d077;strokeColor=#82b366;" vertex="1" parent="1">
          <mxGeometry x="287.5" y="80" width="335" height="50" as="geometry" />
        </mxCell>
        <mxCell id="4fhEWYTqs3r3j7yKjbOE-16" value="" style="shape=flexArrow;endArrow=classic;html=1;rounded=0;fontSize=12;startSize=8;endSize=11;curved=1;entryX=0;entryY=0.5;entryDx=0;entryDy=0;strokeColor=#FFFFFF;fillColor=default;exitX=1;exitY=0.5;exitDx=0;exitDy=0;strokeWidth=5;" edge="1" parent="1" source="4fhEWYTqs3r3j7yKjbOE-6" target="4fhEWYTqs3r3j7yKjbOE-13">
          <mxGeometry width="50" height="50" relative="1" as="geometry">
            <mxPoint x="131.59" y="351.5" as="sourcePoint" />
            <mxPoint x="253.40500000000006" y="351.7049999999999" as="targetPoint" />
          </mxGeometry>
        </mxCell>
        <mxCell id="4fhEWYTqs3r3j7yKjbOE-21" value="&lt;b style=&quot;font-family: Menlo, Monaco, &amp;quot;Courier New&amp;quot;, monospace; white-space-collapse: preserve;&quot;&gt;COPY --from=builder&lt;/b&gt;" style="edgeLabel;html=1;align=center;verticalAlign=middle;resizable=0;points=[];fontSize=12;" vertex="1" connectable="0" parent="4fhEWYTqs3r3j7yKjbOE-16">
          <mxGeometry x="-0.0765" y="-2" relative="1" as="geometry">
            <mxPoint x="-2" y="-4" as="offset" />
          </mxGeometry>
        </mxCell>
      </root>
    </mxGraphModel>
  </diagram>
</mxfile>
